<svg width="119" height="15" viewBox="0 0 119 15" fill="none" xmlns="http://www.w3.org/2000/svg">
<path id="Vector" d="M116.005 4.41372L116.447 4.42578C117.755 4.51151 118.442 4.90801 118.5 5.61393C118.503 5.74035 118.455 5.86286 118.366 5.95663C118.278 6.0504 118.156 6.10841 118.024 6.11893C117.752 6.10658 117.489 6.02119 117.265 5.87246C117.033 5.72154 116.702 5.64608 116.274 5.64608C115.652 5.64608 115.175 5.71574 114.838 5.85773C114.682 5.91537 114.547 6.01479 114.448 6.1442C114.349 6.27361 114.291 6.42756 114.28 6.58777C114.28 7.07133 115.016 7.32049 116.488 7.32584C117.96 7.3312 118.796 7.99561 119 9.32441L118.968 9.86692C118.728 11.0064 117.707 11.6529 115.906 11.8065H115.533C113.819 11.6842 112.92 11.1185 112.838 10.1094C112.838 9.81735 112.967 9.63875 113.224 9.57356C113.48 9.57356 113.783 9.71957 114.131 10.0116C114.479 10.3036 115.047 10.4581 115.836 10.4751C116.98 10.4456 117.573 10.1062 117.616 9.45702C117.616 8.74261 116.86 8.38183 115.349 8.37469C113.838 8.36754 113.025 7.84468 112.908 6.80611L112.921 6.44444C113.192 5.2228 114.22 4.545 116.005 4.41104V4.41372ZM111.194 3.77477C111.58 3.80424 111.782 4.00249 111.804 4.3722C111.77 4.74727 111.556 4.9348 111.162 4.9348H110.223L109.026 4.9281L108.999 8.75377C109.008 9.82539 109.397 10.3777 110.167 10.4108C110.617 10.3911 110.88 10.1473 110.956 9.67938C111.08 9.30968 111.317 9.12348 111.67 9.12348C112.023 9.12348 112.216 9.35522 112.216 9.82003C112.03 10.9926 111.347 11.6087 110.167 11.6686C108.528 11.6186 107.702 10.6407 107.689 8.73502V4.9348H107.278C106.885 4.9348 106.67 4.74727 106.637 4.3722C106.659 4.00249 106.86 3.80424 107.246 3.77477H107.845L107.869 2.36961C107.92 2.00392 108.148 1.82041 108.576 1.82041C108.941 1.84988 109.135 2.06688 109.185 2.46874V3.78013L111.194 3.77477ZM99.3697 7.89782C99.4693 9.26949 100.26 10.1549 101.742 10.5541L102.261 10.6157C103.609 10.4907 104.452 9.88076 104.79 8.78592L104.854 8.49525C104.854 7.67635 104.58 7.02311 104.032 6.53553C103.479 6.04387 102.764 5.75218 102.012 5.71038L101.684 5.70368C100.334 5.87246 99.5623 6.60474 99.3697 7.9005V7.89782ZM101.742 4.44051L102.215 4.45257C103.082 4.50749 103.903 4.82897 104.685 5.4197C105.468 6.01043 105.95 6.89318 106.134 8.08267C106.134 9.22573 105.799 10.112 105.128 10.7416C104.457 11.3712 103.486 11.7262 102.215 11.8065L101.876 11.765C100.76 11.6561 99.8549 11.2725 99.1618 10.6144C98.4686 9.95622 98.1025 9.02079 98.0635 7.80807C98.092 6.93908 98.4435 6.10855 99.0543 5.46659C99.6581 4.84684 100.555 4.50571 101.745 4.44319L101.742 4.44051ZM89.0801 11.1703C89.0257 11.4985 88.801 11.6927 88.413 11.7489C87.9841 11.7489 87.7696 11.5413 87.7696 11.1261V0.505C87.7696 0.184855 87.9873 0.0174138 88.4186 0C88.7745 0 88.9894 0.158064 89.0605 0.475531C89.3969 0.298714 90.0905 0.207627 91.1539 0.191553C92.8872 0.191553 94.3461 0.600552 95.5305 1.41855C96.7149 2.23655 97.3429 3.49347 97.4145 5.1893C97.4145 6.76369 96.8563 8.24163 95.7398 9.62312C94.6233 11.0046 93.1812 11.7003 91.4135 11.7101L89.8016 11.6713C89.4378 11.5436 89.2559 11.3158 89.2559 10.9881C89.2643 10.6438 89.4862 10.4523 89.9174 10.4081L91.4009 10.4389C92.054 10.41 92.6928 10.2458 93.2736 9.95773C93.8544 9.66965 94.3633 9.26442 94.7657 8.76985C95.6214 7.76611 96.081 6.50491 96.0636 5.20806C96.0636 3.99267 95.6114 3.06929 94.7071 2.43793C93.8027 1.80657 92.5658 1.4891 90.9962 1.48553C90.0807 1.48553 89.4429 1.57483 89.0829 1.75343L89.0801 11.1703ZM81.2648 6.43774C81.2648 7.69421 80.0451 8.347 77.6056 8.39612C76.7878 8.35593 76.1477 8.33361 75.6853 8.32914C75.7253 9.73475 76.5068 10.4764 78.0298 10.5541C78.7385 10.5368 79.4155 10.2687 79.9306 9.80128C80.1484 9.57648 80.4486 9.44155 80.768 9.42488C81.1225 9.42488 81.302 9.62491 81.3067 10.025C81.2983 10.3438 80.9829 10.7153 80.3605 11.1395C79.7381 11.5636 78.8016 11.7793 77.5512 11.7864C75.5257 11.5561 74.4302 10.455 74.2646 8.48319C74.2646 7.27047 74.6758 6.30825 75.4983 5.59652C76.3207 4.88479 77.3521 4.50124 78.5923 4.44587C80.3591 4.51017 81.2513 5.17502 81.269 6.44042L81.2648 6.43774ZM79.9739 6.46185C79.9739 5.90282 79.5143 5.62376 78.5951 5.62465C77.1995 5.73985 76.3156 6.23101 75.9435 7.09812C76.5715 7.13161 77.1046 7.15037 77.54 7.1584C79.1533 7.16108 79.966 6.92979 79.9781 6.46453L79.9739 6.46185ZM67.3522 11.619C66.9112 11.5708 66.6907 11.3328 66.6907 10.905C66.5716 4.50124 66.5116 1.14306 66.5107 0.830503C66.5679 0.443381 66.7814 0.247812 67.1583 0.243794C67.5769 0.2813 67.7905 0.550544 67.8212 1.04751L67.8784 6.80745C68.5557 5.30986 69.6112 4.54634 71.045 4.51687C72.5336 4.55705 73.2909 5.48936 73.317 7.31379C73.317 8.30771 73.2737 9.54409 73.1872 11.0229C73.1453 11.4395 72.9081 11.6458 72.4559 11.6458C72.0917 11.6137 71.9102 11.3926 71.9102 10.9868C71.98 9.51417 72.0144 8.32111 72.0135 7.40755C71.9716 6.3654 71.6353 5.81084 71.0045 5.74387C70.3802 5.74387 69.7815 6.13501 69.2084 6.91729C68.6352 7.69957 68.2412 9.05606 68.0263 10.9868C68.0096 11.3725 67.7835 11.5828 67.3564 11.6217L67.3522 11.619ZM60.8111 1.5016H57.6013C57.1361 1.5016 56.9035 1.25915 56.9035 0.774243C56.9035 0.392033 57.1454 0.201374 57.6292 0.202267H65.3203C65.8032 0.202267 66.046 0.39248 66.046 0.774243C66.046 1.25915 65.8134 1.5016 65.3482 1.5016H62.2221L62.2081 11.114C62.2081 11.4971 61.9876 11.6887 61.5466 11.6887C61.0651 11.6887 60.8195 11.4971 60.8153 11.114L60.8111 1.5016ZM50.6834 11.3149C50.6834 12.4035 50.3657 13.2849 49.7302 13.9592C49.4241 14.2884 49.0485 14.5515 48.6284 14.731C48.2084 14.9104 47.7533 15.0021 47.2935 15C46.4711 15 45.8793 14.9187 45.5183 14.7562C45.1574 14.5936 44.9769 14.3503 44.9769 14.0261C44.9908 13.7421 45.1815 13.5591 45.549 13.4769C45.8424 13.4694 46.1342 13.5205 46.4059 13.627C46.6996 13.7348 47.0129 13.7845 47.327 13.773C47.7666 13.773 48.2258 13.568 48.7003 13.1662C49.1748 12.7643 49.4176 12.0865 49.426 11.1301L49.4455 9.44095C48.3681 10.9984 47.0307 11.7771 45.4332 11.7771C43.952 11.7038 43.2049 10.88 43.1919 9.30566C43.1919 8.22064 43.6176 7.20618 44.4689 6.26226C44.8777 5.79977 45.3822 5.42389 45.9503 5.15848C46.5185 4.89306 47.138 4.7439 47.7694 4.72047C48.4114 4.72047 48.9222 4.79817 49.2962 4.95623C49.426 4.79817 49.6716 4.72047 50.0358 4.72047C50.4545 4.72047 50.6625 4.95891 50.6639 5.41703L50.7434 8.70287L50.6834 11.3149ZM45.5672 10.5929C46.3887 10.5447 47.1893 10.1286 47.969 9.3445C48.7463 8.55954 49.1594 7.85495 49.1999 7.2294L49.1831 6.69359C49.1831 6.18011 48.7207 5.92336 47.7959 5.92336C47.0516 5.92336 46.3399 6.23815 45.6607 6.86772C44.9696 7.50912 44.5421 8.36785 44.4563 9.2869C44.4833 10.1531 44.8536 10.5862 45.5672 10.5862V10.5929ZM36.394 11.6846C35.953 11.6337 35.7325 11.3967 35.7325 10.9693C35.7018 9.11634 35.6483 7.76029 35.572 6.90121C35.4957 6.04213 35.4571 5.45676 35.4562 5.1451C35.5134 4.76066 35.7353 4.56509 36.1051 4.56107C36.5587 4.59858 36.8029 4.86782 36.8294 5.36478L36.8699 6.86907C37.5882 5.3688 38.6642 4.60438 40.0979 4.57581C41.593 4.61599 42.3504 5.5483 42.3699 7.37273C42.3699 8.36844 42.3276 9.60526 42.2429 11.0832C42.1983 11.4985 41.9554 11.7061 41.5102 11.7061C41.1474 11.6726 40.9646 11.4516 40.9646 11.0457C41.0334 9.5749 41.0678 8.38139 41.0678 7.46516C41.0241 6.42747 40.6882 5.87291 40.0602 5.80147C39.435 5.80147 38.8354 6.19305 38.2613 6.97623C37.6873 7.7594 37.2932 9.11634 37.0793 11.047C37.0597 11.4301 36.8294 11.6404 36.394 11.6779V11.6846ZM32.2394 4.58518C32.658 4.58518 32.8632 4.80754 32.8674 5.25494L32.8116 9.10607C32.8962 9.99908 33.1377 10.4456 33.5359 10.4456C33.6532 10.4459 33.7697 10.4273 33.8806 10.3907C34.0033 10.351 34.1321 10.332 34.2616 10.3344C34.4891 10.3344 34.623 10.4965 34.6677 10.822C34.6579 11.4087 34.249 11.7061 33.4465 11.7101C32.1756 11.6154 31.529 10.7255 31.5067 9.04043L31.5779 5.23753C31.5988 4.79817 31.8207 4.57982 32.2394 4.57982V4.58518ZM32.658 1.26317C32.8579 1.29391 33.0383 1.39603 33.1631 1.54905C33.2878 1.70207 33.3477 1.8947 33.3307 2.08831C33.2498 2.51562 32.993 2.75807 32.5618 2.80362C32.0719 2.78219 31.8249 2.47945 31.8165 1.89274C31.91 1.46678 32.1905 1.25781 32.658 1.25781V1.26317ZM24.4339 11.6833C23.9929 11.6324 23.771 11.3953 23.771 10.968C23.7403 9.115 23.6872 7.75896 23.6119 6.89988C23.5365 6.0408 23.4979 5.45542 23.496 5.14376C23.5519 4.75932 23.7668 4.56375 24.1436 4.55973C24.5976 4.59724 24.8395 4.86514 24.8693 5.36345L24.9084 6.86772C25.6276 5.36746 26.7036 4.60304 28.1364 4.57447C29.6306 4.61465 30.3884 5.54696 30.4098 7.37139C30.4098 8.3671 30.3674 9.60392 30.2828 11.0819C30.2381 11.4971 29.9953 11.7047 29.5501 11.7047C29.1858 11.6713 29.0044 11.4502 29.0044 11.0444C29.0733 9.57356 29.1077 8.38005 29.1077 7.46381C29.0649 6.42613 28.729 5.87157 28.1001 5.80013C27.4748 5.80013 26.8748 6.19172 26.2998 6.97489C25.7248 7.75806 25.3312 9.11544 25.1191 11.047C25.0996 11.4301 24.8693 11.6404 24.4339 11.6779V11.6833ZM20.2778 4.58384C20.6965 4.58384 20.903 4.8062 20.9072 5.2536L20.8528 9.10205C20.9393 9.99819 21.1794 10.4416 21.5785 10.4416C21.6958 10.4418 21.8123 10.4232 21.9232 10.3867C22.0459 10.347 22.1748 10.328 22.3042 10.3304C22.5317 10.3304 22.6657 10.4925 22.7089 10.818C22.7006 11.4047 22.2903 11.7021 21.4892 11.7061C20.2183 11.6114 19.5717 10.7215 19.5493 9.03641L19.6191 5.23351C19.6386 4.79817 19.8605 4.57982 20.2778 4.57982V4.58384ZM20.6965 1.26183C20.8964 1.29257 21.0768 1.39469 21.2015 1.54771C21.3263 1.70073 21.3862 1.89336 21.3692 2.08697C21.2882 2.51428 21.0328 2.75674 20.6002 2.80228C20.1117 2.78085 19.8647 2.47811 19.855 1.8914C19.9499 1.46678 20.2304 1.25781 20.6965 1.25781V1.26183ZM11.8764 7.90452C11.976 9.27619 12.7668 10.1616 14.2489 10.5608L14.7681 10.6224C16.1162 10.4974 16.9596 9.88746 17.2983 8.79262L17.3638 8.50194C17.3638 7.68305 17.0898 7.02981 16.5418 6.54222C15.9883 6.05057 15.274 5.75887 14.521 5.71708L14.1931 5.71038C12.8412 5.8747 12.069 6.60474 11.8764 7.9005V7.90452ZM14.2489 4.44721L14.722 4.45927C15.6296 4.52965 16.4923 4.86743 17.1922 5.4264C17.9719 6.01847 18.4547 6.90613 18.6408 8.08937C18.6408 9.23243 18.3054 10.1187 17.6346 10.7483C16.9638 11.3779 15.9929 11.732 14.722 11.8106L14.3829 11.769C13.2664 11.6601 12.3616 11.2765 11.6685 10.6184C10.9753 9.96023 10.6092 9.0248 10.5701 7.81209C10.5987 6.9431 10.9501 6.11257 11.561 5.47061C12.1648 4.84817 13.0617 4.50571 14.2517 4.44319L14.2489 4.44721ZM7.25703 2.10573H1.01598C0.471703 2.10573 0.200964 1.88471 0.200964 1.45338C0.226085 1.01 0.496825 0.783621 1.009 0.783621H7.02258C7.02258 0.318807 7.24029 0.077692 7.67571 0.0562597C8.14742 0.0562597 8.38606 0.300054 8.39025 0.783621H9.52486C10.0831 0.783621 10.3622 0.989906 10.3622 1.3998C10.3189 1.86059 10.0608 2.08965 9.58487 2.08965H8.61633C8.79444 3.17639 8.87799 4.27546 8.86614 5.3755C8.85776 7.56964 8.37629 9.17037 7.42171 10.1777C6.46713 11.185 5.18319 11.6994 3.5699 11.7208C2.70491 11.7371 1.8502 11.5387 1.08855 11.1448C0.367502 10.7617 0.00465194 10.3728 0 9.97809C0.0390763 9.57624 0.247014 9.37799 0.623822 9.37397C0.922477 9.37397 1.27974 9.54856 1.69563 9.89773C2.11151 10.2469 2.76278 10.4215 3.64945 10.4215C4.84779 10.4215 5.78888 10.0156 6.47272 9.20385C7.15655 8.3921 7.49987 7.09723 7.50266 5.31924C7.51679 4.24206 7.43554 3.16568 7.25982 2.10171L7.25703 2.10573Z" fill="#212121"/>
</svg>
